<?xml version="1.0" encoding="UTF-8"?>
<svg id="Capa_1" data-name="Capa 1" xmlns="http://www.w3.org/2000/svg" viewBox="0 0 1307.94 533.03">
  <defs>
    <style>
      .cls-1 {
        fill: #1d71b8;
      }
    </style>
  </defs>
  <g>
    <path class="cls-1" d="M1100.69,2.69c.35-1.18,2.82-2.95,4.42-2.66,7.16,2.98,14.76.95,22.06,1.97,25.84,3.61,54.71,17.02,70.2,38.16,9.54-14.32,21.7-22.84,38.15-27.92,10.17-3.14,54.39-11.99,60.05-2.84,2.57,4.15-.23,50.59-1.6,59.07,4.85,37.18-6.72,83.26-1.86,119.07,1.59,11.73,17.24,7.05,12.97,22.77-19.46-2.09-42.09-3.14-61.75-1.9-12.24.78-28.94,6.23-40.37,5.66-11.38-.57-30.78-9.37-44.49-10.85-15.18-1.64-37.38-2.16-51.35,3.39-3.64-.28-3.22-14.33-2.74-17.34,1.1-7.03,5.28-2.24,10.02-2.65,23.35-2.03,42.52-.55,65.54,4.42,5.7,1.23,14.48,6.28,19.48,6.45,3.62.12,16.85-7,22.71-8.31,20.59-4.61,41.94-2.09,62.72-.81.51-38.1-.68-76.3-.08-114.42.27-17.11,4.05-37.33,2.01-54.89-1.27-10.97-20.12-5.28-28.09-3.95-20.26,3.38-50.73,13.18-58.18,35.67-2.64,7.97-1.87,16.36-3.36,16.4-1.66.05-1.01-10.46-6.11-20.64-4.69-9.36-14.19-14.77-33.19-25.6,0,0-18.02-10.26-35.84-12-2.43-.24-6.42-.38-9.25,2.09-2.43,2.12-2.93,5.24-3.14,6.61-1.07,7.23-.28,36.46,2.07,75.95-2.34,1.82-4.69,3.64-7.03,5.46-.59-.14-4.56-1.15-6.61-5.12-1.78-3.45-.87-6.74-.66-7.43,1.1-27.94,2.2-55.88,3.29-83.82ZM1294.02,204.83c1.99-2.74-5.63-7.31-7.5-8.07-13.36-5.46-56.75-3.75-71.28.22-4.27,1.16-16.66,7.84-17.6,7.68-.73-.13-7.62-6.04-12.6-7.68-13.48-4.43-51.62-9.26-64.95-6.72-5.91,1.13-9.82,7.43-2.09,9.01,24.61-3.89,51.54.5,75.25,7.53,1.7.51.76,3.32,4.04,3.71,9.01,1.07,34.01-6.67,46.15-7.47,16.2-1.07,34.66-.36,50.6,1.81Z"/>
    <path class="cls-1" d="M1301.41,29.22l6.53,1.86c-1.6,51.56-1.12,103.73-2.87,155.47-1.18.13-3.66-2.43-3.66-2.74V29.22Z"/>
  </g>
  <g>
    <path class="cls-1" d="M0,163.3v-21.3l20.39.06v-22.22c0-4.11,0-8.28.03-12.51.02-4.23.03-8.36.03-12.39v-21.48l-20.45-.12v-20.81l62.56-.18v21.3l-20.94-.06.31,68.6,20.63.12v20.81l-62.56.18Z"/>
    <path class="cls-1" d="M92.96,89.88c.65-.33,1.3-.63,1.95-.92.65-.28,1.32-.57,2.01-.85,6.75-2.73,12.7-4.15,17.82-4.27s9.49,1.12,13.09,3.72c3.6,2.6,6.43,6.63,8.48,12.08,2.05,5.45,3.37,12.41,3.94,20.87.2,2.93.36,6.06.46,9.4.1,3.34.17,6.81.21,10.41.04,3.6.02,7.31-.06,11.14-.08,3.83-.2,7.65-.37,11.47h-20.2c.16-3.74.31-7.47.46-11.17.14-3.7.25-7.25.34-10.65.08-3.4.11-6.57.09-9.52-.02-2.95-.09-5.56-.21-7.84-.24-3.95-.72-7.3-1.43-10.07-.71-2.77-1.82-4.89-3.33-6.38-1.51-1.48-3.47-2.28-5.89-2.38s-5.46.56-9.12,1.98c-3.09,1.18-5.78,2.65-8.06,4.39l.31,51.64h-21.67c.04-1.75.06-4.12.06-7.11s0-6.36.03-10.1c.02-3.74.03-7.73.03-11.96s0-8.47.03-12.73c.02-4.25.03-8.39.03-12.42s0-7.71.03-11.05c.02-3.34.04-6.22.06-8.64.02-2.42.05-4.12.09-5.1h20.63l.18,6.04Z"/>
    <path class="cls-1" d="M161.32,82.55c0-2.93,0-5.8.03-8.61s.04-5.36.06-7.66c.02-2.3.04-4.26.06-5.89.02-1.63.03-2.75.03-3.36h20.63l.12,25.51h16.6v21.12h-16.42l.37,60.24h-21.67c0-1.22,0-3.02.03-5.4.02-2.38.03-5.16.03-8.33s0-6.65.03-10.44.03-7.7.03-11.75v-24.32h-16.24v-21.12h16.3Z"/>
    <path class="cls-1" d="M282.35,147.86c-2.69,2.93-5.73,5.46-9.13,7.6-3.4,2.14-6.93,3.88-10.59,5.22s-7.35,2.3-11.08,2.87c-3.72.57-7.25.75-10.59.55-5.05-.24-9.87-1.34-14.47-3.3-4.6-1.95-8.63-4.69-12.08-8.21-3.46-3.52-6.19-7.81-8.21-12.88-2.01-5.07-2.96-10.85-2.84-17.36.04-3.46.47-6.93,1.28-10.41.81-3.48,2-6.83,3.57-10.04,1.57-3.21,3.5-6.23,5.8-9.03s4.97-5.25,8.03-7.32,6.48-3.72,10.28-4.94,7.99-1.87,12.54-1.95c4.64-.04,8.81.63,12.51,2.01,3.7,1.38,6.95,3.3,9.73,5.74s5.14,5.31,7.05,8.61c1.91,3.3,3.41,6.82,4.49,10.56,1.08,3.74,1.76,7.63,2.04,11.66s.18,8-.3,11.9l-57.13.18c.65,2.69,1.63,5.08,2.93,7.17,1.3,2.1,2.81,3.87,4.52,5.31s3.6,2.55,5.68,3.33c2.08.77,4.25,1.18,6.53,1.22,1.79,0,3.75-.2,5.89-.61,2.14-.41,4.29-1.05,6.47-1.92,2.18-.87,4.28-1.96,6.32-3.27,2.03-1.3,3.85-2.83,5.43-4.58l15.32,11.9ZM261.47,109.9c-.33-1.91-.94-3.59-1.83-5.04-.9-1.44-2.01-2.66-3.36-3.66-1.34-1-2.84-1.77-4.49-2.32-1.65-.55-3.35-.88-5.1-1.01-2.12-.16-4.25-.02-6.41.43-2.16.45-4.17,1.16-6.04,2.14-1.87.98-3.52,2.22-4.94,3.72-1.42,1.51-2.46,3.26-3.11,5.25l35.28.49Z"/>
    <path class="cls-1" d="M311.16,87.86c1.71-1.06,3.75-1.97,6.13-2.75,2.38-.77,4.93-1.32,7.66-1.65,2.73-.33,5.56-.4,8.51-.21,2.95.18,5.85.67,8.7,1.46,2.85.79,5.56,1.91,8.15,3.36,2.58,1.44,4.91,3.29,6.99,5.52l-8.91,15.69c-2.12-1.75-4.42-3.09-6.9-4.03-2.48-.94-4.99-1.57-7.51-1.89-2.52-.33-5-.37-7.42-.12s-4.64.7-6.65,1.37c-2.01.67-3.74,1.53-5.19,2.56-1.44,1.04-2.45,2.19-3.02,3.45l.67,53.34h-21.67c.04-1.63.06-3.9.06-6.81v-47.85c0-4.21-.01-8.09-.03-11.63-.02-3.54-.03-6.62-.03-9.25v-5.77h20.63l-.18,5.19Z"/>
    <path class="cls-1" d="M436.28,143.59c-1.71,2.65-3.78,5.09-6.22,7.32-2.44,2.24-5.11,4.18-8,5.83-2.89,1.65-5.95,2.94-9.19,3.88-3.24.94-6.52,1.42-9.86,1.46-5.21.04-9.89-.69-14.04-2.2-4.15-1.5-7.78-3.57-10.89-6.2-3.11-2.62-5.7-5.7-7.75-9.22s-3.58-7.25-4.58-11.2c-1-3.95-1.5-8.02-1.5-12.21s.53-8.27,1.59-12.24c1.06-3.97,2.61-7.72,4.67-11.26,2.05-3.54,4.62-6.63,7.69-9.28,3.07-2.64,6.64-4.73,10.71-6.26,4.07-1.53,8.63-2.29,13.67-2.29,3.54,0,6.9.39,10.07,1.16,3.17.77,6.15,1.97,8.94,3.6,2.79,1.63,5.38,3.72,7.78,6.29,2.4,2.56,4.6,5.66,6.59,9.28l-18.31,8.79c-.61-1.14-1.51-2.25-2.69-3.33-1.18-1.08-2.54-2.01-4.09-2.81-1.55-.79-3.22-1.41-5.04-1.86-1.81-.45-3.69-.59-5.65-.43-2.81.2-5.28.96-7.42,2.26-2.14,1.3-3.91,2.94-5.31,4.91-1.4,1.97-2.45,4.19-3.14,6.65-.69,2.46-1.03,4.95-1.01,7.48.02,2.52.42,4.97,1.19,7.35.77,2.38,1.9,4.51,3.39,6.38,1.49,1.87,3.35,3.39,5.58,4.55,2.24,1.16,4.86,1.74,7.87,1.74,1.63,0,3.32-.21,5.07-.64,1.75-.43,3.45-1.07,5.1-1.92,1.65-.85,3.19-1.91,4.64-3.17,1.44-1.26,2.67-2.73,3.69-4.39l16.42,11.96Z"/>
    <path class="cls-1" d="M519.35,163.61h-21.67v-4.82c-5.05,3.34-10.52,5.04-16.42,5.13-4.19.04-8.02-.47-11.47-1.53-3.46-1.06-6.57-2.53-9.34-4.43-2.77-1.89-5.18-4.13-7.23-6.71-2.06-2.58-3.77-5.38-5.16-8.39-1.38-3.01-2.45-6.16-3.2-9.46s-1.19-6.61-1.31-9.95c-.12-3.54.13-7.08.76-10.62.63-3.54,1.63-6.92,2.99-10.13,1.36-3.21,3.11-6.2,5.25-8.97,2.14-2.77,4.65-5.17,7.54-7.2,2.89-2.03,6.14-3.62,9.77-4.76,3.62-1.14,7.61-1.71,11.96-1.71,3.17.04,6.12.4,8.85,1.07,2.73.67,5.27,1.64,7.63,2.9v-.98c0-.49,0-1,.03-1.53.02-.53.03-1.02.03-1.46v-.85h20.63l.37,84.41ZM479.43,100.74c-2.44.08-4.65.68-6.62,1.8-1.97,1.12-3.65,2.66-5.04,4.61-1.38,1.95-2.43,4.25-3.14,6.9-.71,2.65-1.01,5.51-.88,8.61.04,1.42.21,2.93.52,4.52.31,1.59.75,3.15,1.34,4.7.59,1.55,1.31,3.02,2.17,4.43.85,1.4,1.86,2.65,3.02,3.72,1.16,1.08,2.47,1.94,3.94,2.59,1.46.65,3.09.98,4.88.98,2.97,0,5.59-.67,7.87-2.01,2.28-1.34,4.19-3.1,5.74-5.28,1.55-2.18,2.73-4.63,3.54-7.35.81-2.73,1.22-5.45,1.22-8.18s-.41-5.14-1.22-7.6c-.81-2.46-2.01-4.64-3.6-6.53-1.59-1.89-3.53-3.39-5.83-4.49s-4.93-1.57-7.9-1.4Z"/>
    <path class="cls-1" d="M550.05,88.65c.65-.33,1.3-.63,1.95-.92.65-.28,1.32-.57,2.01-.85,8.42-3.38,15.81-4.23,22.16-2.56,6.35,1.67,11.64,6.08,15.87,13.24,2.24-2.6,4.62-4.85,7.14-6.74,2.52-1.89,5.1-3.43,7.72-4.61,2.62-1.18,5.28-1.97,7.96-2.38,2.69-.41,5.29-.43,7.81-.06,3.74.57,7.02,1.88,9.83,3.94,2.81,2.05,5.19,4.67,7.14,7.84s3.48,6.85,4.58,11.02c1.1,4.17,1.81,8.64,2.14,13.4.2,2.93.36,6.07.46,9.43.1,3.36.17,6.87.21,10.53.04,3.66.02,7.42-.06,11.26-.08,3.84-.2,7.68-.37,11.5h-20.2c.16-3.74.31-7.49.46-11.23.14-3.74.26-7.33.37-10.77s.14-6.64.12-9.61c-.02-2.97-.11-5.59-.27-7.87-.2-2.2-.52-4.43-.95-6.71-.43-2.28-1.03-4.35-1.8-6.23-.77-1.87-1.71-3.42-2.81-4.64-1.1-1.22-2.4-1.87-3.91-1.95-2.89-.16-5.37.31-7.45,1.4-2.07,1.1-3.84,2.68-5.31,4.73s-2.66,4.48-3.57,7.26c-.92,2.79-1.64,5.77-2.17,8.94-.53,3.17-.9,6.45-1.1,9.83-.2,3.38-.33,6.68-.37,9.92-.04,3.24-.05,6.31-.03,9.22.02,2.91,0,5.48-.03,7.72h-20.2c.16-3.74.31-7.46.46-11.14.14-3.68.25-7.2.33-10.56.08-3.36.11-6.5.09-9.43s-.09-5.53-.21-7.81c-.24-3.95-.72-7.38-1.43-10.28-.71-2.91-1.82-5.18-3.33-6.81-1.5-1.63-3.47-2.55-5.89-2.78-2.42-.22-5.46.38-9.12,1.8-3.09,1.18-5.78,2.65-8.06,4.39l.3,52.61h-21.67c.04-1.75.06-4.11.06-7.08s0-6.31.03-10.01c.02-3.7.03-7.64.03-11.81s0-8.35.03-12.54c.02-4.19.03-8.28.03-12.27s0-7.64.03-10.96c.02-3.32.04-6.16.06-8.54.02-2.38.05-4.06.09-5.04h20.63l.18,4.21Z"/>
    <path class="cls-1" d="M698.61,80.84c4.72.04,8.98.84,12.79,2.41,3.8,1.57,7.13,3.67,9.98,6.32,2.85,2.65,5.23,5.72,7.14,9.22,1.91,3.5,3.35,7.22,4.3,11.17.96,3.95,1.43,8.01,1.43,12.18s-.48,8.22-1.43,12.15c-.96,3.93-2.39,7.64-4.3,11.14-1.91,3.5-4.31,6.56-7.2,9.19-2.89,2.62-6.26,4.71-10.1,6.26-3.84,1.55-8.19,2.32-13.03,2.32-3.83,0-7.35-.45-10.56-1.34-3.21-.89-6.17-2.12-8.85-3.66v5.62h-20.51c-.04-.77-.07-2.32-.09-4.64-.02-2.32-.04-5.18-.06-8.58s-.03-7.24-.03-11.54-.01-8.83-.03-13.61c-.02-4.78-.04-9.69-.06-14.74-.02-5.04-.03-10.01-.03-14.89s-.01-9.6-.03-14.16c-.02-4.56-.04-8.72-.06-12.48s-.04-7.05-.06-9.86c-.02-2.81-.03-4.92-.03-6.35h21.67l-.18,32.47c2.69-1.46,5.62-2.6,8.82-3.42,3.19-.81,6.7-1.2,10.53-1.16ZM695.8,142.49c3.01.16,5.66-.31,7.93-1.4,2.28-1.1,4.19-2.6,5.74-4.52,1.55-1.91,2.73-4.12,3.54-6.62.81-2.5,1.26-5.07,1.34-7.69.08-2.62-.22-5.2-.92-7.72-.69-2.52-1.76-4.78-3.2-6.77-1.44-1.99-3.28-3.59-5.49-4.79s-4.81-1.8-7.78-1.8c-2.81,0-5.28.51-7.42,1.53-2.14,1.02-3.95,2.36-5.43,4.03-1.49,1.67-2.66,3.59-3.51,5.77-.86,2.18-1.38,4.45-1.59,6.81v4.39c.16,2.32.64,4.58,1.43,6.77.79,2.2,1.89,4.16,3.3,5.89,1.4,1.73,3.1,3.14,5.1,4.24,1.99,1.1,4.31,1.73,6.96,1.89Z"/>
    <path class="cls-1" d="M754.52,80.29c-2.81.08-5.14-.44-6.99-1.56-1.85-1.12-3.26-2.53-4.21-4.24s-1.44-3.58-1.46-5.62c-.02-2.03.42-3.93,1.31-5.68.89-1.75,2.25-3.21,4.06-4.39,1.81-1.18,4.08-1.77,6.81-1.77,2.48,0,4.58.56,6.29,1.68,1.71,1.12,3.02,2.53,3.94,4.24.92,1.71,1.4,3.55,1.46,5.52.06,1.97-.31,3.83-1.1,5.55-.79,1.73-2.02,3.18-3.69,4.36-1.67,1.18-3.81,1.81-6.41,1.89ZM764.46,163.12h-21.67l.85-76.84h20.63l.18,76.84Z"/>
    <path class="cls-1" d="M850.4,163.61h-21.67v-4.82c-5.05,3.34-10.52,5.04-16.42,5.13-4.19.04-8.02-.47-11.47-1.53-3.46-1.06-6.57-2.53-9.34-4.43-2.77-1.89-5.18-4.13-7.23-6.71-2.06-2.58-3.77-5.38-5.16-8.39-1.38-3.01-2.45-6.16-3.2-9.46s-1.19-6.61-1.31-9.95c-.12-3.54.13-7.08.76-10.62.63-3.54,1.63-6.92,2.99-10.13,1.36-3.21,3.11-6.2,5.25-8.97,2.14-2.77,4.65-5.17,7.54-7.2,2.89-2.03,6.14-3.62,9.77-4.76,3.62-1.14,7.61-1.71,11.96-1.71,3.17.04,6.12.4,8.85,1.07,2.73.67,5.27,1.64,7.63,2.9v-.98c0-.49,0-1,.03-1.53.02-.53.03-1.02.03-1.46v-.85h20.63l.37,84.41ZM810.49,100.74c-2.44.08-4.65.68-6.62,1.8-1.97,1.12-3.65,2.66-5.04,4.61-1.38,1.95-2.43,4.25-3.14,6.9-.71,2.65-1.01,5.51-.88,8.61.04,1.42.21,2.93.52,4.52.31,1.59.75,3.15,1.34,4.7.59,1.55,1.31,3.02,2.17,4.43.85,1.4,1.86,2.65,3.02,3.72,1.16,1.08,2.47,1.94,3.94,2.59,1.46.65,3.09.98,4.88.98,2.97,0,5.59-.67,7.87-2.01,2.28-1.34,4.19-3.1,5.74-5.28,1.55-2.18,2.73-4.63,3.54-7.35.81-2.73,1.22-5.45,1.22-8.18s-.41-5.14-1.22-7.6c-.81-2.46-2.01-4.64-3.6-6.53-1.59-1.89-3.53-3.39-5.83-4.49s-4.93-1.57-7.9-1.4Z"/>
    <path class="cls-1" d="M880.49,143.16h37.29v20.94h-58.78V53.25h20.63l.85,89.9Z"/>
    <path class="cls-1" d="M940.06,80.29c-2.81.08-5.14-.44-6.99-1.56-1.85-1.12-3.26-2.53-4.21-4.24s-1.44-3.58-1.46-5.62c-.02-2.03.42-3.93,1.31-5.68.89-1.75,2.25-3.21,4.06-4.39,1.81-1.18,4.08-1.77,6.81-1.77,2.48,0,4.58.56,6.29,1.68,1.71,1.12,3.02,2.53,3.94,4.24.92,1.71,1.4,3.55,1.46,5.52.06,1.97-.31,3.83-1.1,5.55-.79,1.73-2.02,3.18-3.69,4.36-1.67,1.18-3.81,1.81-6.41,1.89ZM950.01,163.12h-21.67l.85-76.84h20.63l.18,76.84Z"/>
    <path class="cls-1" d="M1000.61,80.84c4.72.04,8.98.84,12.79,2.41,3.8,1.57,7.13,3.67,9.98,6.32,2.85,2.65,5.23,5.72,7.14,9.22,1.91,3.5,3.35,7.22,4.3,11.17.96,3.95,1.43,8.01,1.43,12.18s-.48,8.22-1.43,12.15c-.96,3.93-2.39,7.64-4.3,11.14-1.91,3.5-4.31,6.56-7.2,9.19-2.89,2.62-6.26,4.71-10.1,6.26-3.84,1.55-8.19,2.32-13.03,2.32-3.83,0-7.35-.45-10.56-1.34-3.21-.89-6.17-2.12-8.85-3.66v5.62h-20.51c-.04-.77-.07-2.32-.09-4.64-.02-2.32-.04-5.18-.06-8.58s-.03-7.24-.03-11.54-.01-8.83-.03-13.61c-.02-4.78-.04-9.69-.06-14.74-.02-5.04-.03-10.01-.03-14.89s-.01-9.6-.03-14.16c-.02-4.56-.04-8.72-.06-12.48s-.04-7.05-.06-9.86c-.02-2.81-.03-4.92-.03-6.35h21.67l-.18,32.47c2.69-1.46,5.62-2.6,8.82-3.42,3.19-.81,6.7-1.2,10.53-1.16ZM997.8,142.49c3.01.16,5.66-.31,7.93-1.4,2.28-1.1,4.19-2.6,5.74-4.52,1.55-1.91,2.73-4.12,3.54-6.62.81-2.5,1.26-5.07,1.34-7.69.08-2.62-.22-5.2-.92-7.72-.69-2.52-1.76-4.78-3.2-6.77-1.44-1.99-3.28-3.59-5.49-4.79s-4.81-1.8-7.78-1.8c-2.81,0-5.28.51-7.42,1.53-2.14,1.02-3.95,2.36-5.43,4.03-1.49,1.67-2.66,3.59-3.51,5.77-.86,2.18-1.38,4.45-1.59,6.81v4.39c.16,2.32.64,4.58,1.43,6.77.79,2.2,1.89,4.16,3.3,5.89,1.4,1.73,3.1,3.14,5.1,4.24,1.99,1.1,4.31,1.73,6.96,1.89Z"/>
    <path class="cls-1" d="M1065.55,87.86c1.71-1.06,3.75-1.97,6.13-2.75,2.38-.77,4.93-1.32,7.66-1.65,2.73-.33,5.56-.4,8.51-.21,2.95.18,5.85.67,8.7,1.46,2.85.79,5.56,1.91,8.15,3.36,2.58,1.44,4.91,3.29,6.99,5.52l-8.91,15.69c-2.12-1.75-4.42-3.09-6.9-4.03-2.48-.94-4.99-1.57-7.51-1.89-2.52-.33-5-.37-7.42-.12s-4.64.7-6.65,1.37c-2.01.67-3.74,1.53-5.19,2.56-1.44,1.04-2.45,2.19-3.02,3.45l.67,53.34h-21.67c.04-1.63.06-3.9.06-6.81v-47.85c0-4.21-.01-8.09-.03-11.63-.02-3.54-.03-6.62-.03-9.25v-5.77h20.63l-.18,5.19Z"/>
    <path class="cls-1" d="M1157.71,162.39c-5.21.04-9.89-.69-14.04-2.2-4.15-1.5-7.78-3.57-10.9-6.19-3.11-2.62-5.7-5.7-7.75-9.22-2.06-3.52-3.58-7.25-4.58-11.2-1-3.95-1.5-8.02-1.5-12.21s.53-8.27,1.59-12.24c1.06-3.97,2.61-7.72,4.67-11.26s4.62-6.63,7.69-9.28c3.07-2.64,6.64-4.73,10.71-6.26,4.07-1.53,8.63-2.29,13.67-2.29s9.19.77,13.03,2.32c3.84,1.55,7.21,3.63,10.1,6.26,2.89,2.62,5.29,5.69,7.2,9.19,1.91,3.5,3.35,7.21,4.3,11.14.96,3.93,1.43,7.98,1.43,12.15s-.48,8.23-1.43,12.18c-.96,3.95-2.39,7.67-4.3,11.17-1.91,3.5-4.29,6.57-7.14,9.22-2.85,2.65-6.17,4.75-9.98,6.32s-8.07,2.37-12.79,2.41ZM1154.91,100.74c-2.85.16-5.33.88-7.45,2.14-2.12,1.26-3.88,2.88-5.28,4.85-1.4,1.97-2.45,4.18-3.14,6.62-.69,2.44-1.03,4.93-1.01,7.48.02,2.54.42,5.03,1.19,7.45.77,2.42,1.9,4.58,3.39,6.47,1.48,1.89,3.35,3.42,5.58,4.58,2.24,1.16,4.86,1.74,7.87,1.74s5.56-.6,7.78-1.8c2.22-1.2,4.05-2.8,5.49-4.79,1.44-1.99,2.51-4.25,3.2-6.77.69-2.52,1-5.1.92-7.72-.08-2.62-.53-5.19-1.34-7.69-.81-2.5-1.99-4.71-3.54-6.62-1.55-1.91-3.46-3.42-5.74-4.52-2.28-1.1-4.92-1.57-7.93-1.4Z"/>
    <path class="cls-1" d="M1263.49,143.22c0,3.78-.69,7.05-2.08,9.8-1.38,2.75-3.25,5.02-5.58,6.81-2.34,1.79-5.06,3.13-8.15,4.03-3.09.89-6.35,1.39-9.77,1.5-3.42.1-6.89-.17-10.41-.82-3.52-.65-6.91-1.64-10.16-2.96-3.26-1.32-6.25-2.95-8.97-4.88-2.73-1.93-4.99-4.12-6.78-6.56l11.54-14.65c1.38,1.42,2.98,2.74,4.79,3.94,1.81,1.2,3.66,2.24,5.55,3.11,1.89.88,3.78,1.54,5.68,1.98,1.89.45,3.62.63,5.19.55,1.57-.08,2.9-.47,4-1.16,1.1-.69,1.85-1.75,2.26-3.17.33-1.26-.14-2.55-1.4-3.88-1.26-1.32-3.01-2.73-5.25-4.21-2.24-1.49-4.78-3.07-7.63-4.76-2.85-1.69-5.67-3.49-8.45-5.4-2.79-1.91-5.4-3.97-7.84-6.16s-4.35-4.58-5.74-7.14c-1.34-2.48-2.07-5.02-2.17-7.63-.1-2.6.31-5.12,1.22-7.54.92-2.42,2.26-4.68,4.03-6.77,1.77-2.1,3.87-3.9,6.29-5.4,2.42-1.5,5.08-2.61,7.96-3.33,2.89-.71,5.9-.92,9.03-.64,2.93.29,5.99.9,9.19,1.83,3.19.94,6.24,2.11,9.12,3.51,2.89,1.4,5.52,2.97,7.9,4.7,2.38,1.73,4.24,3.53,5.58,5.4l-11.84,14.28c-1.99-2.08-4.23-3.88-6.71-5.4-2.48-1.53-4.89-2.63-7.23-3.33-2.34-.69-4.45-.94-6.32-.73-1.87.2-3.17,1-3.91,2.38-.41.77-.48,1.54-.21,2.29.26.75.73,1.49,1.4,2.2.67.71,1.49,1.4,2.44,2.08.96.67,1.95,1.29,2.99,1.86,1.04.57,2.03,1.09,2.99,1.56.96.47,1.76.85,2.41,1.13,3.42,1.34,6.64,3.04,9.67,5.1,3.03,2.06,5.69,4.43,7.96,7.11,2.28,2.69,4.08,5.66,5.4,8.91,1.32,3.26,1.98,6.75,1.98,10.5Z"/>
  </g>
</svg>