<?xml version="1.0" encoding="UTF-8"?>
<svg id="Capa_1" data-name="Capa 1" xmlns="http://www.w3.org/2000/svg" viewBox="0 0 1307.94 533.03">
  <defs>
    <style>
      .cls-1 {
        fill: #1d71b8;
      }
    </style>
  </defs>
  <path class="cls-1" d="M586.06,321.6c.35-1.18,2.82-2.95,4.42-2.66,7.16,2.98,14.76.95,22.06,1.97,25.84,3.61,54.71,17.02,70.2,38.16,9.54-14.32,21.7-22.84,38.15-27.92,10.17-3.14,54.39-11.99,60.05-2.84,2.57,4.15-.23,50.59-1.6,59.07,4.85,37.18-6.72,83.26-1.86,119.07,1.59,11.73,17.24,7.05,12.97,22.77-19.46-2.09-42.09-3.14-61.75-1.9-12.24.78-28.94,6.23-40.37,5.66-11.38-.57-30.78-9.37-44.49-10.85-15.18-1.64-37.38-2.16-51.35,3.39-3.64-.28-3.22-14.33-2.74-17.34,1.1-7.03,5.28-2.24,10.02-2.65,23.35-2.03,42.52-.55,65.54,4.42,5.7,1.23,14.48,6.28,19.48,6.45,3.62.12,16.85-7,22.71-8.31,20.59-4.61,41.94-2.09,62.72-.81.51-38.1-.68-76.3-.08-114.42.27-17.11,4.05-37.33,2.01-54.89-1.27-10.97-20.12-5.28-28.09-3.95-18.42,3.08-56.39,13.49-58.18,35.67-.32,3.92,4.59,25.95-1.29,25.96-3.59,0-3.57-26.78-5.02-31.56-5.83-19.21-57.63-35.14-76.08-36.11-6.95-.36-9.25-.91-10.14,6.33-1.85,14.99-.79,58.73-.91,67.83-.02,1.31.25,99.3.24,99.7-2.16-.01-2.68-7.47-4.84-7.49.06-27.75-1.82-145.01-1.77-172.76ZM779.39,523.74c1.99-2.74-5.63-7.31-7.5-8.07-13.36-5.46-56.75-3.75-71.28.22-4.27,1.16-16.66,7.84-17.6,7.68-.73-.13-7.62-6.04-12.6-7.68-13.48-4.43-51.62-9.26-64.95-6.72-5.91,1.13-9.82,7.43-2.09,9.01,24.61-3.89,51.54.5,75.25,7.53,1.7.51.76,3.32,4.04,3.71,9.01,1.07,34.01-6.67,46.15-7.47,16.2-1.07,34.66-.36,50.6,1.81Z"/>
  <path class="cls-1" d="M786.77,348.12l6.53,1.86c-1.6,51.56-1.12,103.73-2.87,155.47-1.18.13-3.66-2.43-3.66-2.74v-154.58Z"/>
  <g>
    <path class="cls-1" d="M611.94,482.29v-18.75l17.94.05v-19.55c0-3.62,0-7.29.03-11.01.02-3.72.03-7.36.03-10.9v-18.91l-17.99-.11v-18.32l55.05-.16v18.75l-18.42-.05.27,60.37,18.15.11v18.32l-55.05.16Z"/>
    <path class="cls-1" d="M732.36,464.56h32.82v18.42h-51.72v-97.54h18.15l.75,79.12Z"/>
  </g>
</svg>